<?xml version="1.0" encoding="UTF-8"?>
<svg width="40" height="40" viewBox="0 0 40 40" fill="none" xmlns="http://www.w3.org/2000/svg">
    <rect width="40" height="40" rx="10" fill="#003366"/>
    <path d="M15 5.83V9.17M25 5.83V9.17M9.17 15H5.83M9.17 25H5.83M34.17 15H30.83M34.17 25H30.83M15 34.17V30.83M25 34.17V30.83M20 29.17C24.6023 29.17 28.33 25.4358 28.33 20.83C28.33 16.2242 24.6023 12.5 20 12.5C15.3977 12.5 11.67 16.2242 11.67 20.83C11.67 25.4358 15.3977 29.17 20 29.17Z" 
          stroke="white" 
          stroke-width="2.5" 
          stroke-linecap="round" 
          stroke-linejoin="round"/>
    <path d="M20 24.17C21.841 24.17 23.33 22.6742 23.33 20.83C23.33 18.9858 21.841 17.5 20 17.5C18.159 17.5 16.67 18.9858 16.67 20.83C16.67 22.6742 18.159 24.17 20 24.17Z" 
          fill="white"/>
</svg> 